<svg xmlns="http://www.w3.org/2000/svg">
  <symbol id="chart" viewBox="0 0 19 19"><path d="M16.417 9.583A7.917 7.917 0 1 1 8.5 1.666a7.917 7.917 0 0 1 7.917 7.917zm-2.806 4.029a.396.396 0 0 0-.396-.396H4.868v-7.94a.396.396 0 1 0-.792 0v8.336a.396.396 0 0 0 .396.396h8.743a.396.396 0 0 0 .396-.396zM5.68 12.396h1.254V7.938a.318.318 0 0 0-.316-.317h-.622a.318.318 0 0 0-.316.317zm2.012 0h1.255V5.495a.318.318 0 0 0-.317-.317h-.62a.318.318 0 0 0-.318.317zm2.013 0h1.255V7.938a.318.318 0 0 0-.317-.317h-.621a.318.318 0 0 0-.317.317zm2.013 0h1.255V10.38a.317.317 0 0 0-.317-.317h-.621a.317.317 0 0 0-.317.317z"/></symbol>
  <symbol id="cog" viewBox="0 0 19 19"><path d="M16.417 9.583A7.917 7.917 0 1 1 8.5 1.666a7.917 7.917 0 0 1 7.917 7.917zm-2.327-.557a.391.391 0 0 0-.312-.371l-.952-.165a.315.315 0 0 0-.05-.003 4.386 4.386 0 0 0-.467-1.125.344.344 0 0 0 .034-.039l.556-.79a.391.391 0 0 0-.041-.482l-.81-.81a.391.391 0 0 0-.483-.042l-.79.557a.315.315 0 0 0-.039.033 4.41 4.41 0 0 0-1.124-.466.284.284 0 0 0-.004-.05l-.164-.952a.391.391 0 0 0-.37-.312H7.926a.39.39 0 0 0-.37.312l-.165.951a.315.315 0 0 0-.004.05 4.408 4.408 0 0 0-1.125.467.293.293 0 0 0-.039-.033L5.435 5.2a.391.391 0 0 0-.483.042l-.81.81a.391.391 0 0 0-.042.483l.557.79a.313.313 0 0 0 .033.038 4.397 4.397 0 0 0-.466 1.125.316.316 0 0 0-.05.003l-.952.165a.391.391 0 0 0-.312.37v1.147a.39.39 0 0 0 .312.37l.952.165a.317.317 0 0 0 .05.004 4.396 4.396 0 0 0 .466 1.124.313.313 0 0 0-.033.04l-.557.789a.391.391 0 0 0 .042.482l.81.81a.39.39 0 0 0 .483.042l.79-.557a.293.293 0 0 0 .039-.033 4.375 4.375 0 0 0 1.124.466.316.316 0 0 0 .004.051l.164.952a.39.39 0 0 0 .371.312h1.146a.391.391 0 0 0 .37-.312l.165-.952a.285.285 0 0 0 .004-.05 4.377 4.377 0 0 0 1.124-.467.315.315 0 0 0 .04.033l.789.557a.39.39 0 0 0 .483-.041l.81-.81a.391.391 0 0 0 .042-.483l-.557-.79a.344.344 0 0 0-.033-.039 4.386 4.386 0 0 0 .466-1.124.316.316 0 0 0 .05-.004l.952-.165a.39.39 0 0 0 .312-.37zm-3.686.573A1.904 1.904 0 1 1 8.5 7.695a1.904 1.904 0 0 1 1.904 1.904z"/></symbol>
  <symbol id="history" viewBox="0 0 19 19"><path d="M16.417 9.583A7.917 7.917 0 1 1 8.5 1.666a7.917 7.917 0 0 1 7.917 7.917zm-2.787.06a5.076 5.076 0 0 0-7.6-4.401 5.11 5.11 0 0 0-1.252 1.015V5.57a.396.396 0 0 0-.792 0v1.66a.396.396 0 0 0 .396.395H6.04a.396.396 0 0 0 0-.791h-.717A4.274 4.274 0 0 1 8.556 5.36a4.282 4.282 0 1 1-4.283 4.283.396.396 0 0 0-.792 0 5.074 5.074 0 1 0 10.15 0zm-4.763-.099V6.872a.396.396 0 0 0-.791 0v2.841a.395.395 0 0 0 .153.313l1.537 1.536a.396.396 0 1 0 .56-.56z"/></symbol>
  <symbol id="home" viewBox="0 0 19 19"><path d="M16.417 9.583A7.917 7.917 0 1 1 8.5 1.666a7.917 7.917 0 0 1 7.917 7.917zm-2.792-1.198a.396.396 0 0 0-.149-.54L8.661 5.104a.396.396 0 0 0-.393 0l-2.31 1.324v-.895a.318.318 0 0 0-.317-.317h-.968a.318.318 0 0 0-.317.317v1.813l-.872.5a.396.396 0 1 0 .393.686l4.589-2.629 4.619 2.63a.395.395 0 0 0 .54-.148zm-1.02.786L8.467 6.815l-4.11 2.356v4.465a.318.318 0 0 0 .316.317h7.615a.318.318 0 0 0 .317-.317zm-6.647.607h1.647v1.668H5.958zm5.045 1.668H9.356V9.778h1.647z"/></symbol>
  <symbol id="cross" viewBox="0 0 19 19"><path d="M16.417 10.283A7.917 7.917 0 1 1 8.5 2.366a7.916 7.916 0 0 1 7.917 7.917zm-6.804.01 3.032-3.033a.792.792 0 0 0-1.12-1.12L8.494 9.173 5.46 6.14a.792.792 0 0 0-1.12 1.12l3.034 3.033-3.033 3.033a.792.792 0 0 0 1.12 1.119l3.032-3.033 3.033 3.033a.792.792 0 0 0 1.12-1.12z"/></symbol>
</svg>