<svg width="17" height="17" viewBox="0 0 17 17" fill="none" xmlns="http://www.w3.org/2000/svg">
<mask id="mask0_175_170" style="mask-type:alpha" maskUnits="userSpaceOnUse" x="0" y="0" width="17" height="17">
<rect width="17" height="17" fill="#D9D9D9"/>
</mask>
<g mask="url(#mask0_175_170)">
<path d="M7.79169 9.20817H4.25002C4.04933 9.20817 3.8811 9.14029 3.74533 9.00453C3.60957 8.86876 3.54169 8.70053 3.54169 8.49984C3.54169 8.29914 3.60957 8.13091 3.74533 7.99515C3.8811 7.85939 4.04933 7.7915 4.25002 7.7915H7.79169V4.24984C7.79169 4.04914 7.85957 3.88091 7.99533 3.74515C8.1311 3.60939 8.29933 3.5415 8.50002 3.5415C8.70072 3.5415 8.86894 3.60939 9.00471 3.74515C9.14047 3.88091 9.20835 4.04914 9.20835 4.24984V7.7915H12.75C12.9507 7.7915 13.1189 7.85939 13.2547 7.99515C13.3905 8.13091 13.4584 8.29914 13.4584 8.49984C13.4584 8.70053 13.3905 8.86876 13.2547 9.00453C13.1189 9.14029 12.9507 9.20817 12.75 9.20817H9.20835V12.7498C9.20835 12.9505 9.14047 13.1188 9.00471 13.2545C8.86894 13.3903 8.70072 13.4582 8.50002 13.4582C8.29933 13.4582 8.1311 13.3903 7.99533 13.2545C7.85957 13.1188 7.79169 12.9505 7.79169 12.7498V9.20817Z" fill="white"/>
</g>
</svg>
