<svg width="19" height="19" viewBox="0 0 19 19" fill="none" xmlns="http://www.w3.org/2000/svg">
<mask id="mask0_36_366" style="mask-type:alpha" maskUnits="userSpaceOnUse" x="0" y="0" width="19" height="19">
<rect x="19" width="19" height="19" transform="rotate(90 19 0)" fill="#D9D9D9"/>
</mask>
<g mask="url(#mask0_36_366)">
<path d="M9.50003 10.7666L12.5875 7.67913C12.7327 7.534 12.9174 7.46143 13.1417 7.46143C13.366 7.46143 13.5507 7.534 13.6959 7.67913C13.841 7.82427 13.9136 8.009 13.9136 8.2333C13.9136 8.45761 13.841 8.64233 13.6959 8.78747L10.0542 12.4291C9.97503 12.5083 9.88927 12.5644 9.79691 12.5974C9.70455 12.6303 9.60559 12.6468 9.50003 12.6468C9.39448 12.6468 9.29552 12.6303 9.20316 12.5974C9.1108 12.5644 9.02503 12.5083 8.94587 12.4291L5.3042 8.78747C5.15906 8.64233 5.08649 8.45761 5.08649 8.2333C5.08649 8.00899 5.15906 7.82427 5.3042 7.67913C5.44934 7.53399 5.63406 7.46143 5.85837 7.46143C6.08267 7.46143 6.26739 7.53399 6.41253 7.67913L9.50003 10.7666Z" fill="white"/>
</g>
</svg>
