<svg width="24" height="25" viewBox="0 0 24 25" fill="none" xmlns="http://www.w3.org/2000/svg">
<mask id="mask0_180_179" style="mask-type:alpha" maskUnits="userSpaceOnUse" x="0" y="0" width="24" height="25">
<rect y="0.0461426" width="24" height="24" fill="#D9D9D9"/>
</mask>
<g mask="url(#mask0_180_179)">
<path d="M9.55002 15.1961L18.025 6.72114C18.225 6.52114 18.4584 6.42114 18.725 6.42114C18.9917 6.42114 19.225 6.52114 19.425 6.72114C19.625 6.92114 19.725 7.15864 19.725 7.43364C19.725 7.70864 19.625 7.94614 19.425 8.14614L10.25 17.3461C10.05 17.5461 9.81669 17.6461 9.55002 17.6461C9.28336 17.6461 9.05002 17.5461 8.85002 17.3461L4.55002 13.0461C4.35002 12.8461 4.25419 12.6086 4.26252 12.3336C4.27086 12.0586 4.37502 11.8211 4.57502 11.6211C4.77502 11.4211 5.01252 11.3211 5.28752 11.3211C5.56252 11.3211 5.80002 11.4211 6.00002 11.6211L9.55002 15.1961Z" fill="#1C1B1F"/>
</g>
</svg>
