<svg width="17" height="17" viewBox="0 0 17 17" fill="none" xmlns="http://www.w3.org/2000/svg">
<mask id="mask0_65_2" style="mask-type:alpha" maskUnits="userSpaceOnUse" x="0" y="0" width="17" height="17">
<rect width="17" height="17" fill="#D9D9D9"/>
</mask>
<g mask="url(#mask0_65_2)">
<path d="M7.66763 15.5834C7.34888 15.5834 7.0744 15.4772 6.8442 15.2647C6.61399 15.0522 6.47527 14.7924 6.42805 14.4855L6.26868 13.3167C6.1152 13.2577 5.97059 13.1869 5.83482 13.1042C5.69906 13.0216 5.56624 12.9331 5.43638 12.8386L4.33847 13.299C4.04333 13.4289 3.74819 13.4407 3.45305 13.3345C3.15791 13.2282 2.9277 13.0393 2.76243 12.7678L1.93013 11.3157C1.76486 11.0442 1.71763 10.7549 1.78847 10.448C1.8593 10.1411 2.01868 9.88723 2.26659 9.68654L3.20513 8.97821C3.19333 8.89557 3.18743 8.81588 3.18743 8.73914V8.26102C3.18743 8.18428 3.19333 8.1046 3.20513 8.02196L2.26659 7.31362C2.01868 7.11293 1.8593 6.85911 1.78847 6.55217C1.71763 6.24522 1.76486 5.95598 1.93013 5.68446L2.76243 4.23237C2.9277 3.96085 3.15791 3.77196 3.45305 3.66571C3.74819 3.55946 4.04333 3.57126 4.33847 3.70112L5.43638 4.16154C5.56624 4.0671 5.70201 3.97855 5.84368 3.89591C5.98534 3.81328 6.12701 3.74244 6.26868 3.68341L6.42805 2.51466C6.47527 2.20772 6.61399 1.948 6.8442 1.7355C7.0744 1.523 7.34888 1.41675 7.66763 1.41675H9.33222C9.65097 1.41675 9.92545 1.523 10.1557 1.7355C10.3859 1.948 10.5246 2.20772 10.5718 2.51466L10.7312 3.68341C10.8846 3.74244 11.0293 3.81328 11.165 3.89591C11.3008 3.97855 11.4336 4.0671 11.5635 4.16154L12.6614 3.70112C12.9565 3.57126 13.2517 3.55946 13.5468 3.66571C13.8419 3.77196 14.0721 3.96085 14.2374 4.23237L15.0697 5.68446C15.235 5.95598 15.2822 6.24522 15.2114 6.55217C15.1406 6.85911 14.9812 7.11293 14.7333 7.31362L13.7947 8.02196C13.8065 8.1046 13.8124 8.18428 13.8124 8.26102V8.73914C13.8124 8.81588 13.8006 8.89557 13.777 8.97821L14.7156 9.68654C14.9635 9.88723 15.1228 10.1411 15.1937 10.448C15.2645 10.7549 15.2173 11.0442 15.052 11.3157L14.202 12.7678C14.0367 13.0393 13.8065 13.2282 13.5114 13.3345C13.2162 13.4407 12.9211 13.4289 12.626 13.299L11.5635 12.8386C11.4336 12.9331 11.2978 13.0216 11.1562 13.1042C11.0145 13.1869 10.8728 13.2577 10.7312 13.3167L10.5718 14.4855C10.5246 14.7924 10.3859 15.0522 10.1557 15.2647C9.92545 15.4772 9.65097 15.5834 9.33222 15.5834H7.66763ZM7.79159 14.1667H9.19055L9.43847 12.2897C9.80444 12.1952 10.1438 12.0565 10.4567 11.8735C10.7695 11.6905 11.0558 11.4692 11.3156 11.2095L13.0687 11.9355L13.7593 10.7313L12.2364 9.58029C12.2954 9.41501 12.3367 9.24088 12.3603 9.05789C12.384 8.87491 12.3958 8.68897 12.3958 8.50008C12.3958 8.31119 12.384 8.12526 12.3603 7.94227C12.3367 7.75928 12.2954 7.58515 12.2364 7.41987L13.7593 6.26883L13.0687 5.06466L11.3156 5.80842C11.0558 5.53689 10.7695 5.30963 10.4567 5.12664C10.1438 4.94366 9.80444 4.80494 9.43847 4.7105L9.20826 2.83341H7.8093L7.56138 4.7105C7.19541 4.80494 6.856 4.94366 6.54315 5.12664C6.23031 5.30963 5.94402 5.53098 5.6843 5.79071L3.93118 5.06466L3.24055 6.26883L4.76347 7.40216C4.70444 7.57925 4.66312 7.75633 4.63951 7.93341C4.6159 8.1105 4.60409 8.29939 4.60409 8.50008C4.60409 8.68897 4.6159 8.87196 4.63951 9.04904C4.66312 9.22612 4.70444 9.40321 4.76347 9.58029L3.24055 10.7313L3.93118 11.9355L5.6843 11.1917C5.94402 11.4633 6.23031 11.6905 6.54315 11.8735C6.856 12.0565 7.19541 12.1952 7.56138 12.2897L7.79159 14.1667ZM8.53534 10.9792C9.22006 10.9792 9.80444 10.7372 10.2885 10.2532C10.7725 9.76918 11.0145 9.1848 11.0145 8.50008C11.0145 7.81536 10.7725 7.23098 10.2885 6.74696C9.80444 6.26293 9.22006 6.02091 8.53534 6.02091C7.83881 6.02091 7.25149 6.26293 6.77336 6.74696C6.29524 7.23098 6.05618 7.81536 6.05618 8.50008C6.05618 9.1848 6.29524 9.76918 6.77336 10.2532C7.25149 10.7372 7.83881 10.9792 8.53534 10.9792Z" fill="white"/>
</g>
</svg>
