<svg width="650" height="650" viewBox="0 0 650 650" fill="none" xmlns="http://www.w3.org/2000/svg">
<rect width="650" height="650" rx="160" fill="#171717"/>
<mask id="mask0_225_26" style="mask-type:alpha" maskUnits="userSpaceOnUse" x="65" y="65" width="520" height="520">
<path d="M65 195C65 123.203 123.203 65 195 65H455C526.797 65 585 123.203 585 195V455C585 526.797 526.797 585 455 585H195C123.203 585 65 526.797 65 455V195Z" fill="white"/>
</mask>
<g mask="url(#mask0_225_26)">
<path d="M490.826 13H584.999V627.173H544.055V344.653H531.771V627.173H490.826V13ZM531.771 62.1339V295.52H544.055V62.1339H531.771Z" fill="white"/>
<path d="M331.141 13H478.542V632.366H437.597V62.1339H425.314V627.173H384.369V62.1339H372.086V632.366H331.141V13Z" fill="white"/>
<path opacity="0.4" d="M224.682 13H318.855V627.173H277.91V344.653H265.627V627.173H224.682V13ZM265.627 62.1339V295.52H277.91V62.1339H265.627Z" fill="white"/>
<path d="M65 -87.7246H105.945V578.039H118.228V12.9998H159.173V578.039H171.457V12.9998H212.402V627.173H65V-87.7246Z" fill="white"/>
</g>
</svg>
